<?xml version="1.0" encoding="UTF-8"?><svg xmlns="http://www.w3.org/2000/svg" xmlns:xlink="http://www.w3.org/1999/xlink" contentScriptType="text/ecmascript" width="375pt" zoomAndPan="magnify" contentStyleType="text/css" viewBox="0 0 375 374.999991" height="374.999991pt" preserveAspectRatio="xMidYMid meet" version="1.2"><defs><g/><clipPath xml:id="clip1" id="clip1"><path d="M 139.347656 102.675781 L 235.347656 102.675781 L 235.347656 212.925781 L 139.347656 212.925781 Z M 139.347656 102.675781 "/></clipPath></defs><g xml:id="surface1" id="surface1"><g style="fill:rgb(100%,100%,100%);fill-opacity:1;"><g transform="translate(91.372843, 265.575743)"><path style="stroke:none;" d="M 28.558594 -27.199219 L 6.800781 -27.199219 C 3.808594 -27.199219 1.359375 -24.75 1.359375 -21.757812 L 1.359375 -5.441406 C 1.359375 -2.449219 3.808594 0 6.800781 0 L 28.558594 0 L 28.558594 -5.441406 L 6.800781 -5.441406 L 6.800781 -10.878906 L 28.558594 -10.878906 L 28.558594 -16.320312 L 6.800781 -16.320312 L 6.800781 -21.757812 L 28.558594 -21.757812 Z M 28.558594 -27.199219 "/></g></g><g style="fill:rgb(100%,100%,100%);fill-opacity:1;"><g transform="translate(123.839411, 265.575743)"><path style="stroke:none;" d="M 6.800781 0 L 6.800781 -17.917969 L 23.898438 -0.816406 C 24.410156 -0.304688 25.089844 0 25.839844 0 C 27.335938 0 28.558594 -1.222656 28.558594 -2.71875 L 28.558594 -27.199219 L 23.117188 -27.199219 L 23.117188 -9.28125 L 6.015625 -26.382812 C 5.507812 -26.890625 4.828125 -27.199219 4.078125 -27.199219 C 2.582031 -27.199219 1.359375 -25.972656 1.359375 -24.476562 L 1.359375 0 Z M 6.800781 0 "/></g></g><g style="fill:rgb(100%,100%,100%);fill-opacity:1;"><g transform="translate(156.30598, 265.575743)"><path style="stroke:none;" d="M 28.558594 -27.199219 L 6.800781 -27.199219 C 3.808594 -27.199219 1.359375 -24.75 1.359375 -21.757812 L 1.359375 -5.441406 C 1.359375 -2.449219 3.808594 0 6.800781 0 L 23.117188 0 C 26.144531 0 28.558594 -2.480469 28.558594 -5.441406 L 28.558594 -16.320312 L 12.238281 -16.320312 L 12.238281 -10.878906 L 23.117188 -10.878906 L 23.117188 -5.441406 L 6.800781 -5.441406 L 6.800781 -21.757812 L 28.558594 -21.757812 Z M 28.558594 -27.199219 "/></g></g><g style="fill:rgb(100%,100%,100%);fill-opacity:1;"><g transform="translate(188.772552, 265.575743)"><path style="stroke:none;" d="M 6.800781 -27.199219 C 3.808594 -27.199219 1.359375 -24.75 1.359375 -21.757812 L 1.359375 0 L 6.800781 0 L 6.800781 -10.878906 L 23.117188 -10.878906 L 23.117188 0 L 28.558594 0 L 28.558594 -21.757812 C 28.558594 -24.75 26.109375 -27.199219 23.117188 -27.199219 Z M 6.800781 -21.757812 L 23.117188 -21.757812 L 23.117188 -16.320312 L 6.800781 -16.320312 Z M 6.800781 -21.757812 "/></g></g><g style="fill:rgb(100%,100%,100%);fill-opacity:1;"><g transform="translate(221.239117, 265.575743)"><path style="stroke:none;" d="M 28.558594 -27.199219 L 6.800781 -27.199219 C 3.808594 -27.199219 1.359375 -24.75 1.359375 -21.757812 L 1.359375 -5.441406 C 1.359375 -2.449219 3.808594 0 6.800781 0 L 23.117188 0 C 26.144531 0 28.558594 -2.480469 28.558594 -5.441406 L 28.558594 -16.320312 L 12.238281 -16.320312 L 12.238281 -10.878906 L 23.117188 -10.878906 L 23.117188 -5.441406 L 6.800781 -5.441406 L 6.800781 -21.757812 L 28.558594 -21.757812 Z M 28.558594 -27.199219 "/></g></g><g style="fill:rgb(100%,100%,100%);fill-opacity:1;"><g transform="translate(253.705683, 265.575743)"><path style="stroke:none;" d="M 28.558594 -27.199219 L 6.800781 -27.199219 C 3.808594 -27.199219 1.359375 -24.75 1.359375 -21.757812 L 1.359375 -5.441406 C 1.359375 -2.449219 3.808594 0 6.800781 0 L 28.558594 0 L 28.558594 -5.441406 L 6.800781 -5.441406 L 6.800781 -10.878906 L 28.558594 -10.878906 L 28.558594 -16.320312 L 6.800781 -16.320312 L 6.800781 -21.757812 L 28.558594 -21.757812 Z M 28.558594 -27.199219 "/></g></g><path style=" stroke:none;fill-rule:nonzero;fill:rgb(85.099792%,85.099792%,85.099792%);fill-opacity:1;" d="M 218.464844 139.703125 C 218.269531 139.34375 218.015625 138.988281 217.480469 138.714844 L 209.878906 134.296875 C 209.773438 134.238281 209.664062 134.191406 209.542969 134.160156 C 209.503906 134.152344 209.46875 134.152344 209.425781 134.144531 C 209.347656 134.128906 209.269531 134.117188 209.191406 134.117188 L 209.175781 134.117188 L 209.175781 134.121094 C 208.949219 134.125 208.730469 134.183594 208.535156 134.296875 L 191.429688 144.238281 L 191.414062 144.207031 L 190.035156 145.011719 C 188.371094 145.976562 186.324219 145.976562 184.65625 145.011719 L 177.179688 140.667969 C 176.765625 140.425781 176.511719 139.980469 176.511719 139.496094 C 176.511719 139.011719 176.765625 138.566406 177.179688 138.324219 L 184.65625 133.980469 C 186.324219 133.015625 188.371094 133.015625 190.035156 133.980469 L 191.835938 135.027344 C 192.25 135.269531 192.761719 135.269531 193.175781 135.027344 L 200.140625 130.980469 C 200.558594 130.738281 200.8125 130.292969 200.8125 129.808594 C 200.8125 129.328125 200.558594 128.878906 200.140625 128.636719 L 190.035156 122.765625 C 188.371094 121.796875 186.324219 121.796875 184.65625 122.765625 L 159.898438 137.152344 C 158.105469 138.195312 158.105469 140.796875 159.898438 141.835938 L 184.65625 156.226562 C 186.324219 157.191406 188.371094 157.191406 190.035156 156.226562 L 209.175781 145.101562 L 209.175781 170.441406 L 203.023438 174.023438 L 190.035156 181.597656 C 189.621094 181.835938 189.183594 182.015625 188.726562 182.140625 C 187.355469 182.507812 185.890625 182.308594 184.65625 181.597656 L 166.859375 171.253906 C 166.027344 170.773438 165.515625 169.878906 165.515625 168.910156 L 165.515625 154.140625 C 165.515625 153.660156 165.257812 153.210938 164.84375 152.972656 L 157.882812 148.921875 C 157.464844 148.679688 156.953125 148.679688 156.539062 148.921875 C 156.121094 149.164062 155.867188 149.613281 155.867188 150.097656 L 155.867188 174.519531 C 155.867188 175.484375 156.378906 176.375 157.210938 176.863281 L 184.65625 192.8125 C 185.464844 193.28125 186.378906 193.527344 187.308594 193.535156 L 187.328125 193.535156 C 187.457031 193.535156 187.589844 193.519531 187.722656 193.511719 C 187.824219 193.503906 187.921875 193.503906 188.023438 193.492188 C 188.164062 193.472656 188.300781 193.441406 188.4375 193.414062 C 188.53125 193.390625 188.625 193.378906 188.714844 193.355469 C 188.863281 193.320312 189.007812 193.261719 189.148438 193.210938 C 189.234375 193.179688 189.3125 193.160156 189.386719 193.128906 C 189.609375 193.039062 189.824219 192.933594 190.03125 192.8125 L 213.710938 179.050781 L 217.464844 176.910156 C 218.304688 176.429688 218.828125 175.53125 218.828125 174.558594 L 218.828125 141.054688 C 218.828125 140.574219 218.695312 140.105469 218.464844 139.703125 "/><g clip-rule="nonzero" clip-path="url(#clip1)"><path style=" stroke:none;fill-rule:nonzero;fill:rgb(45.098877%,45.098877%,45.098877%);fill-opacity:1;" d="M 189.96875 114.671875 C 189.167969 114.210938 188.269531 113.960938 187.347656 113.953125 C 186.425781 113.960938 185.523438 114.210938 184.726562 114.671875 L 151.652344 133.894531 C 149.992188 134.855469 148.96875 136.636719 148.96875 138.566406 L 148.96875 177.007812 C 148.96875 178.9375 149.992188 180.71875 151.652344 181.679688 L 184.726562 200.898438 C 185.535156 201.371094 186.449219 201.621094 187.382812 201.625 C 188.316406 201.621094 189.234375 201.371094 190.046875 200.902344 L 222.976562 181.765625 C 224.632812 180.804688 225.65625 179.023438 225.65625 177.09375 L 225.65625 165.988281 C 225.652344 165.503906 225.910156 165.058594 226.324219 164.816406 L 233.335938 160.746094 C 233.75 160.503906 234.261719 160.503906 234.675781 160.746094 C 235.089844 160.984375 235.347656 161.429688 235.347656 161.914062 L 235.347656 182.601562 C 235.34375 183.484375 235.125 184.351562 234.710938 185.128906 C 234.609375 185.640625 234.054688 186.238281 233.277344 186.855469 C 233.261719 186.871094 233.238281 186.886719 233.21875 186.902344 C 231.238281 188.453125 227.960938 190.050781 227.382812 190.390625 L 190.046875 212.085938 C 189.210938 212.570312 188.257812 212.820312 187.292969 212.808594 L 187.253906 212.808594 L 187.253906 212.804688 C 186.363281 212.78125 185.492188 212.53125 184.726562 212.085938 L 142.027344 187.273438 C 140.367188 186.3125 139.347656 184.53125 139.347656 182.601562 L 139.347656 132.976562 C 139.347656 132.109375 139.457031 131.226562 139.832031 130.480469 C 139.886719 130.285156 140.402344 129.332031 141.46875 128.550781 C 141.871094 128.277344 142.582031 127.910156 143.246094 127.523438 L 184.605469 103.492188 C 185.4375 103.007812 186.386719 102.757812 187.347656 102.769531 C 188.308594 102.757812 189.253906 103.007812 190.089844 103.492188 L 228.25 125.664062 C 228.339844 125.71875 228.40625 125.78125 228.480469 125.84375 L 228.964844 126.121094 C 230.261719 126.8125 232.292969 127.867188 233.398438 128.710938 L 233.488281 128.78125 C 233.5 128.792969 233.515625 128.800781 233.53125 128.8125 C 233.570312 128.84375 233.59375 128.878906 233.632812 128.910156 C 234.039062 129.253906 234.382812 129.652344 234.648438 130.101562 C 234.65625 130.105469 234.660156 130.113281 234.667969 130.121094 L 234.664062 130.121094 C 235.109375 130.871094 235.347656 131.730469 235.347656 132.601562 L 235.347656 150.773438 C 235.347656 151.253906 235.089844 151.699219 234.675781 151.941406 L 227.664062 156.019531 C 227.25 156.257812 226.738281 156.257812 226.324219 156.019531 C 225.90625 155.777344 225.652344 155.332031 225.652344 154.847656 L 225.652344 138.460938 C 225.652344 136.53125 224.628906 134.75 222.96875 133.785156 L 189.96875 114.671875 L 189.96875 114.675781 Z M 189.96875 114.671875 "/></g></g></svg>